<svg xmlns="http://www.w3.org/2000/svg" xmlns:xlink="http://www.w3.org/1999/xlink" preserveAspectRatio="xMidYMid" width="57" height="57" viewBox="0 0 57 57">
  <defs>
    <style>
      .cls-1 {
        fill: #fff;
        fill-rule: evenodd;
      }
    </style>
  </defs>
  <g>
    <path d="M47.575,32.362 C43.616,46.712 32.730,47.207 32.730,47.207 L28.400,54.877 L24.194,47.331 C11.699,45.351 9.472,32.485 9.472,32.485 L1.307,28.403 L9.596,24.321 C10.957,12.321 24.565,9.352 24.565,9.352 L28.524,1.558 L32.730,9.723 C45.472,12.692 47.080,24.321 47.080,24.321 L54.750,28.527 L47.575,32.362 ZM28.338,13.434 C19.968,13.434 13.183,20.219 13.183,28.589 C13.183,36.959 19.968,43.743 28.338,43.743 C36.708,43.743 43.492,36.959 43.492,28.589 C43.492,20.219 36.708,13.434 28.338,13.434 Z" class="cls-1"/>
    <path d="M21.225,39.414 L24.565,26.548 L34.462,17.269 L31.245,30.259 L21.225,39.414 Z" class="cls-1"/>
  </g>
</svg>
