<svg xmlns="http://www.w3.org/2000/svg" xmlns:xlink="http://www.w3.org/1999/xlink" preserveAspectRatio="xMidYMid" width="57" height="57" viewBox="0 0 57 57">
  <defs>
    <style>
      .cls-1 {
        fill: #b5b5b5;
        filter: url(#color-overlay-1);
        fill-rule: evenodd;
      }
    </style>

    <filter id="color-overlay-1" filterUnits="userSpaceOnUse">
      <feFlood flood-color="#fff"/>
      <feComposite operator="in" in2="SourceGraphic"/>
      <feBlend in2="SourceGraphic" result="solidFill"/>
    </filter>
  </defs>
  <g>
    <path d="M3.085,32.200 C3.085,32.200 6.999,36.971 13.522,37.812 L23.400,37.999 C23.400,37.999 29.736,36.222 32.811,35.567 C32.811,35.567 39.614,33.696 46.603,37.438 C46.603,37.438 49.585,37.345 46.976,35.006 C46.976,35.006 37.937,29.580 27.500,33.509 C27.500,33.509 16.224,36.971 8.956,33.790 C8.956,33.790 6.160,32.293 4.390,31.358 C4.390,31.358 2.619,30.609 3.085,32.200 Z" class="cls-1"/>
    <path d="M12.963,33.229 C12.963,33.229 17.342,34.445 21.722,33.416 C21.722,33.416 31.134,30.142 39.241,30.797 C39.241,30.797 43.714,31.638 44.926,32.480 C44.926,32.480 53.126,27.616 54.803,24.529 C54.803,24.529 56.108,23.126 52.008,23.032 C52.008,23.032 41.850,21.910 27.686,26.213 C27.686,26.213 18.647,28.926 15.945,29.955 C15.945,29.955 12.031,31.919 12.963,33.229 Z" class="cls-1"/>
    <path d="M8.117,28.177 C8.117,28.177 8.210,33.042 11.565,32.855 C11.565,32.855 13.242,29.113 15.758,28.832 C15.758,28.832 15.665,25.184 12.683,25.090 C12.683,25.090 7.465,24.529 8.117,28.177 Z" class="cls-1"/>
    <path d="M20.045,26.961 C20.045,26.961 30.109,20.132 35.607,19.010 C35.607,19.010 38.496,20.320 40.266,21.816 C40.266,21.816 40.639,22.565 39.241,22.565 C39.241,22.565 23.306,26.026 21.443,27.242 C21.443,27.242 19.486,28.645 20.045,26.961 Z" class="cls-1"/>
  </g>
</svg>
