<svg xmlns="http://www.w3.org/2000/svg" xmlns:xlink="http://www.w3.org/1999/xlink" preserveAspectRatio="xMidYMid" width="57" height="57" viewBox="0 0 57 57">
  <defs>
    <style>
      .cls-1 {
        fill: #fff;
        fill-rule: evenodd;
      }
    </style>
  </defs>
  <g>
    <path d="M44.885,52.780 L38.830,52.913 L38.830,46.638 L35.769,46.704 L35.703,52.979 L29.160,53.001 L29.005,9.852 L35.370,9.852 L35.370,4.150 L38.786,3.996 L38.941,9.852 L44.996,10.160 L44.885,52.780 ZM32.669,43.693 L35.277,43.693 L35.277,41.104 L32.669,41.104 L32.669,43.693 ZM35.463,31.488 L35.463,28.806 L32.762,28.806 L32.762,31.488 L35.463,31.488 ZM32.576,37.775 L35.277,37.775 L35.277,35.094 L32.576,35.094 L32.576,37.775 ZM35.557,16.509 L32.762,16.509 L32.762,19.283 L35.557,19.283 L35.557,16.509 ZM35.557,22.704 L32.762,22.704 L32.762,25.478 L35.557,25.478 L35.557,22.704 ZM39.003,43.601 L41.518,43.601 L41.518,41.104 L39.003,41.104 L39.003,43.601 ZM38.910,31.488 L41.518,31.488 L41.518,28.899 L38.910,28.899 L38.910,31.488 ZM38.910,22.611 L38.910,25.200 L41.518,25.200 L41.518,22.611 L38.910,22.611 ZM41.705,16.509 L39.003,16.509 L39.003,19.190 L41.705,19.190 L41.705,16.509 ZM41.798,35.001 L39.189,35.001 L39.189,37.590 L41.798,37.590 L41.798,35.001 Z" class="cls-1"/>
    <path d="M22.291,52.858 L18.370,52.943 L18.370,48.881 L16.388,48.924 L16.345,52.986 L12.109,53.001 L12.008,25.062 L16.130,25.062 L16.130,21.370 L18.342,21.270 L18.442,25.062 L22.363,25.261 L22.291,52.858 ZM14.381,46.974 L16.070,46.974 L16.070,45.297 L14.381,45.297 L14.381,46.974 ZM16.190,39.071 L16.190,37.335 L14.441,37.335 L14.441,39.071 L16.190,39.071 ZM14.321,43.142 L16.070,43.142 L16.070,41.406 L14.321,41.406 L14.321,43.142 ZM16.251,29.372 L14.441,29.372 L14.441,31.168 L16.251,31.168 L16.251,29.372 ZM16.251,33.383 L14.441,33.383 L14.441,35.180 L16.251,35.180 L16.251,33.383 ZM18.482,46.914 L20.111,46.914 L20.111,45.297 L18.482,45.297 L18.482,46.914 ZM18.422,39.071 L20.111,39.071 L20.111,37.395 L18.422,37.395 L18.422,39.071 ZM18.422,33.324 L18.422,35.000 L20.111,35.000 L20.111,33.324 L18.422,33.324 ZM20.232,29.372 L18.482,29.372 L18.482,31.109 L20.232,31.109 L20.232,29.372 ZM20.292,41.346 L18.603,41.346 L18.603,43.022 L20.292,43.022 L20.292,41.346 Z" class="cls-1"/>
  </g>
</svg>
