<svg xmlns="http://www.w3.org/2000/svg" xmlns:xlink="http://www.w3.org/1999/xlink" preserveAspectRatio="xMidYMid" width="57" height="57" viewBox="0 0 57 57">
  <defs>
    <style>
      .cls-1 {
        fill: #fff;
        fill-rule: evenodd;
      }
    </style>
  </defs>
  <g>
    <path d="M45.064,38.889 C48.941,39.433 51.118,40.930 51.118,40.930 L50.982,45.215 C49.213,45.896 47.649,44.399 47.649,44.399 C45.540,42.630 42.343,44.467 42.343,44.467 C39.486,46.916 36.221,44.580 36.221,44.580 C34.545,43.695 33.302,43.816 32.486,44.142 C32.843,43.855 32.737,43.805 30.870,44.762 C27.151,46.667 25.428,44.943 25.428,44.943 C23.251,43.583 20.712,44.217 20.712,44.217 C16.812,45.578 15.088,45.124 15.088,45.124 C10.916,43.764 9.828,43.673 9.828,43.673 C5.384,46.031 5.021,45.215 5.021,45.215 L5.202,40.952 C5.815,40.952 7.787,40.045 7.787,40.045 C11.801,37.664 13.773,40.249 13.773,40.249 C14.454,40.794 15.542,40.521 15.542,40.521 L15.474,28.957 C13.705,26.237 11.733,21.339 11.733,21.339 C12.141,19.978 15.474,19.230 15.474,19.230 L15.474,12.428 L18.807,12.156 L19.079,8.687 L24.181,8.823 L24.249,4.265 L31.051,4.129 L31.187,8.347 L36.561,8.618 L36.629,11.952 L40.915,12.088 L40.302,19.026 C44.248,19.298 44.248,21.679 44.248,21.679 C42.547,23.040 40.438,29.162 40.438,29.162 L40.166,39.909 C41.051,40.998 45.064,38.889 45.064,38.889 ZM37.445,14.945 L33.908,14.945 L33.704,11.748 L22.072,11.748 L21.732,14.809 L18.127,15.013 L18.195,18.006 C18.195,18.006 19.623,17.598 22.276,16.101 C22.276,16.101 25.337,13.993 27.786,13.788 C27.786,13.788 30.847,14.264 33.908,16.305 C33.908,16.305 35.949,17.734 37.650,17.666 L37.445,14.945 ZM32.486,44.142 C32.132,44.426 31.323,44.943 31.323,44.943 C31.323,44.943 31.713,44.451 32.486,44.142 Z" class="cls-1"/>
    <path d="M5.021,47.483 L5.112,51.836 C5.112,51.836 6.835,52.199 8.740,51.020 C8.740,51.020 11.370,49.115 13.728,51.564 C13.728,51.564 16.812,53.650 18.898,51.383 C18.898,51.383 22.526,48.843 25.247,51.564 C25.247,51.564 28.965,52.924 31.233,51.473 C31.233,51.473 33.591,48.752 37.853,52.108 C37.853,52.108 40.484,53.469 42.751,51.110 C42.751,51.110 46.470,49.206 49.191,52.108 L50.733,52.018 L50.823,47.755 C50.823,47.755 47.558,47.392 46.470,46.122 C46.470,46.122 43.295,45.487 41.300,47.483 C41.300,47.483 38.216,48.662 36.947,47.392 C36.947,47.392 33.591,45.034 31.142,46.757 C31.142,46.757 27.877,48.662 25.791,46.938 C25.791,46.938 21.528,45.034 19.714,46.848 C19.714,46.848 16.630,49.024 13.547,47.029 C13.547,47.029 11.642,44.943 7.742,46.485 C7.742,46.485 5.384,47.664 5.021,47.483 Z" class="cls-1"/>
  </g>
</svg>
