<svg xmlns="http://www.w3.org/2000/svg" xmlns:xlink="http://www.w3.org/1999/xlink" preserveAspectRatio="xMidYMid" width="57" height="57" viewBox="0 0 57 57">
  <defs>
    <style>
      .cls-1, .cls-2 {
        fill: #000;
        filter: url(#color-overlay-1);
      }

      .cls-2 {
        fill-rule: evenodd;
      }
    </style>

    <filter id="color-overlay-1" filterUnits="userSpaceOnUse">
      <feFlood flood-color="#fff"/>
      <feComposite operator="in" in2="SourceGraphic"/>
      <feBlend in2="SourceGraphic" result="solidFill"/>
    </filter>
  </defs>
  <g>
    <circle cx="20.734" cy="19.797" r="5.047" class="cls-1"/>
    <path d="M42.192,26.772 L31.168,28.477 L32.873,34.273 C33.555,35.978 33.214,36.887 33.214,36.887 L30.032,52.570 C24.804,56.207 24.236,51.092 24.236,51.092 L25.486,44.871 L16.536,53.962 C10.286,55.383 12.133,49.700 12.133,49.700 L26.395,36.205 C27.191,35.523 27.418,34.500 27.418,34.500 C25.827,32.909 24.690,27.454 24.690,27.454 C24.122,24.499 27.304,23.363 27.304,23.363 L37.078,21.545 L37.532,20.863 L27.986,7.112 L23.895,9.044 C22.645,9.385 21.963,9.612 21.963,9.612 L20.599,7.794 L20.599,6.543 L27.304,2.680 L28.782,2.680 L40.714,19.726 C41.169,21.545 41.964,20.977 41.964,20.977 C47.306,23.932 42.192,26.772 42.192,26.772 ZM39.651,49.761 C40.839,49.761 41.802,50.724 41.802,51.912 C41.802,53.100 40.839,54.064 39.651,54.064 C38.463,54.064 37.500,53.100 37.500,51.912 C37.500,50.724 38.463,49.761 39.651,49.761 Z" class="cls-2"/>
  </g>
</svg>
