<svg xmlns="http://www.w3.org/2000/svg" xmlns:xlink="http://www.w3.org/1999/xlink" preserveAspectRatio="xMidYMid" width="57" height="57" viewBox="0 0 57 57">
  <defs>
    <style>
      .cls-1 {
        fill: #fff;
        fill-rule: evenodd;
      }
    </style>
  </defs>
  <path d="M27.820,40.971 C27.820,40.971 32.041,44.128 37.146,46.002 C37.146,46.002 42.938,44.128 49.122,39.392 C49.122,39.392 52.852,37.616 55.012,28.638 C55.012,28.638 54.325,21.239 46.962,19.167 C46.962,19.167 40.582,18.575 37.342,23.409 C37.342,23.409 33.416,18.476 27.722,19.463 C27.722,19.463 21.636,20.154 20.065,27.060 C20.065,27.060 18.495,21.436 27.722,18.180 C27.722,18.180 32.238,17.095 37.244,21.535 C37.244,21.535 40.287,18.871 42.447,18.476 C42.447,18.476 39.207,10.090 29.980,11.077 C29.980,11.077 25.268,12.064 22.618,16.207 C22.618,16.207 16.924,8.906 8.188,11.965 C8.188,11.965 -1.432,16.799 1.611,26.764 C1.611,26.764 2.985,32.979 10.936,38.110 C10.936,38.110 18.888,42.549 22.421,43.634 C22.421,43.634 26.054,42.352 27.820,40.971 Z" class="cls-1"/>
</svg>
