<svg xmlns="http://www.w3.org/2000/svg" xmlns:xlink="http://www.w3.org/1999/xlink" preserveAspectRatio="xMidYMid" width="57" height="57" viewBox="0 0 57 57">
  <defs>
    <style>
      .cls-1 {
        fill: #fff;
        fill-rule: evenodd;
      }
    </style>
  </defs>
  <g>
    <path d="M24.400,10.987 C24.400,10.987 16.772,13.571 17.018,23.906 C17.018,23.906 16.034,35.348 25.508,38.301 L26.246,38.793 L26.123,41.869 C26.123,41.869 27.722,44.699 28.830,45.191 C28.830,45.191 28.214,47.775 26.861,48.021 C26.861,48.021 26.984,50.113 28.830,49.621 C28.830,49.621 30.798,47.529 31.167,45.314 C31.167,45.314 29.691,42.731 28.460,41.500 L28.460,38.916 C28.460,38.916 29.937,38.670 31.659,37.317 C31.659,37.317 38.919,33.503 38.673,22.429 C38.673,22.429 38.303,14.432 31.290,10.864 C31.290,10.864 25.631,10.248 24.400,10.987 Z" class="cls-1"/>
    <path d="M34.366,10.987 C34.366,10.987 42.733,16.892 39.411,28.950 C39.411,28.950 38.057,29.565 39.165,33.256 C39.165,33.256 40.764,35.594 41.133,36.948 C41.133,36.948 40.395,40.270 39.534,40.147 C39.534,40.147 41.256,41.500 42.364,40.270 C42.364,40.270 43.963,37.317 43.348,35.348 C43.348,35.348 41.133,33.256 41.010,31.534 L41.625,29.688 C41.625,29.688 49.254,28.827 50.115,18.615 C50.115,18.615 50.115,7.049 41.502,6.557 C41.502,6.557 35.474,6.803 34.366,10.987 Z" class="cls-1"/>
    <path d="M19.109,13.078 C19.109,13.078 12.465,17.754 15.418,25.874 C15.418,25.874 16.895,27.597 15.664,29.196 C15.664,29.196 13.450,30.919 15.172,32.887 C15.172,32.887 15.664,34.118 14.188,34.118 C14.188,34.118 11.973,34.364 12.465,30.550 C12.465,30.550 14.557,28.827 13.942,26.120 C13.942,26.120 6.929,24.644 7.790,16.400 C7.790,16.400 8.774,8.280 16.649,9.633 C16.649,9.633 19.232,11.848 19.109,13.078 Z" class="cls-1"/>
  </g>
</svg>
