<svg xmlns="http://www.w3.org/2000/svg" xmlns:xlink="http://www.w3.org/1999/xlink" preserveAspectRatio="xMidYMid" width="57" height="57" viewBox="0 0 57 57">
  <defs>
    <style>
      .cls-1 {
        fill: #fff;
        fill-rule: evenodd;
      }
    </style>
  </defs>
  <path d="M24.604,43.849 C24.604,43.849 11.931,43.849 12.040,47.454 C12.040,47.454 11.166,50.514 23.730,50.841 C23.730,50.841 28.865,52.043 39.572,50.186 C39.572,50.186 50.169,47.892 41.429,44.723 C41.429,44.723 39.135,44.177 35.202,44.395 C35.202,44.395 35.639,31.722 41.320,24.402 C41.320,24.402 43.286,28.226 39.463,32.924 C39.463,32.924 44.707,34.126 45.144,26.041 C45.144,26.041 47.001,26.806 46.673,32.378 C46.673,32.378 51.699,29.646 46.892,23.528 C46.892,23.528 47.875,23.091 50.497,26.259 C50.497,26.259 52.573,20.141 44.160,19.814 C44.160,19.814 41.320,10.309 33.235,17.082 C33.235,17.082 39.244,16.754 38.589,18.830 C38.589,18.830 32.033,18.393 32.798,26.369 C32.798,26.369 35.529,21.890 39.790,22.327 C39.790,22.327 30.722,34.344 31.815,47.127 C31.815,47.127 30.285,48.984 30.176,46.471 C30.176,46.471 31.378,26.806 21.327,17.301 C21.327,17.301 28.100,15.990 31.269,23.091 L32.143,22.763 C32.143,22.763 33.126,9.981 23.293,12.275 C23.293,12.275 25.587,8.342 31.596,10.090 C31.596,10.090 22.201,0.585 16.847,13.695 C16.847,13.695 6.359,10.636 5.922,22.873 C5.922,22.873 8.762,18.721 12.477,17.519 C12.477,17.519 4.174,23.201 11.275,31.504 C11.275,31.504 10.510,23.965 14.116,21.234 C14.116,21.234 10.948,30.629 21.873,32.487 C21.873,32.487 16.192,24.074 19.469,18.830 C19.469,18.830 27.663,27.898 25.915,46.581 C25.915,46.581 25.478,48.766 24.386,47.018 C24.386,47.018 24.058,44.505 24.604,43.849 Z" class="cls-1"/>
</svg>
